<svg width="44" height="44" viewBox="0 0 44 44" fill="none" xmlns="http://www.w3.org/2000/svg">
<rect width="44" height="44" rx="22" fill="#4589FF"/>
<g clip-path="url(#clip0_2362_11970)">
<path d="M27 21V15C27 13.9 26.1 13 25 13H19C17.9 13 17 13.9 17 15V17H15C13.9 17 13 17.9 13 19V29C13 30.1 13.9 31 15 31H20C20.55 31 21 30.55 21 30V27H23V30C23 30.55 23.45 31 24 31H29C30.1 31 31 30.1 31 29V23C31 21.9 30.1 21 29 21H27ZM17 29H15V27H17V29ZM17 25H15V23H17V25ZM17 21H15V19H17V21ZM21 25H19V23H21V25ZM21 21H19V19H21V21ZM21 17H19V15H21V17ZM25 25H23V23H25V25ZM25 21H23V19H25V21ZM25 17H23V15H25V17ZM29 29H27V27H29V29ZM29 25H27V23H29V25Z" fill="white"/>
</g>
<defs>
<clipPath id="clip0_2362_11970">
<rect width="24" height="24" fill="white" transform="translate(10 10)"/>
</clipPath>
</defs>
</svg>
