<svg width="44" height="44" viewBox="0 0 44 44" fill="none" xmlns="http://www.w3.org/2000/svg">
<rect width="44" height="44" rx="22" fill="#4589FF"/>
<g clip-path="url(#clip0_2362_11952)">
<path d="M30 14H14C12.9 14 12.01 14.9 12.01 16L12 28C12 29.1 12.9 30 14 30H30C31.1 30 32 29.1 32 28V16C32 14.9 31.1 14 30 14ZM29.6 18.25L22.53 22.67C22.21 22.87 21.79 22.87 21.47 22.67L14.4 18.25C14.15 18.09 14 17.82 14 17.53C14 16.86 14.73 16.46 15.3 16.81L22 21L28.7 16.81C29.27 16.46 30 16.86 30 17.53C30 17.82 29.85 18.09 29.6 18.25Z" fill="white"/>
</g>
<defs>
<clipPath id="clip0_2362_11952">
<rect width="24" height="24" fill="white" transform="translate(10 10)"/>
</clipPath>
</defs>
</svg>
