<svg width="44" height="44" viewBox="0 0 44 44" fill="none" xmlns="http://www.w3.org/2000/svg">
<rect width="44" height="44" rx="22" fill="#4589FF"/>
<g clip-path="url(#clip0_2362_11958)">
<path d="M29.23 25.2598L26.69 24.9698C26.08 24.8998 25.48 25.1098 25.05 25.5398L23.21 27.3798C20.38 25.9398 18.06 23.6298 16.62 20.7898L18.47 18.9398C18.9 18.5098 19.11 17.9098 19.04 17.2998L18.75 14.7798C18.63 13.7698 17.78 13.0098 16.76 13.0098H15.03C13.9 13.0098 12.96 13.9498 13.03 15.0798C13.56 23.6198 20.39 30.4398 28.92 30.9698C30.05 31.0398 30.99 30.0998 30.99 28.9698V27.2398C31 26.2298 30.24 25.3798 29.23 25.2598Z" fill="white"/>
</g>
<defs>
<clipPath id="clip0_2362_11958">
<rect width="24" height="24" fill="white" transform="translate(10 10)"/>
</clipPath>
</defs>
</svg>
