<svg width="44" height="44" viewBox="0 0 44 44" fill="none" xmlns="http://www.w3.org/2000/svg">
<rect width="44" height="44" rx="22" fill="#4589FF"/>
<g clip-path="url(#clip0_2362_11964)">
<path d="M21.99 12C16.47 12 12 16.48 12 22C12 27.52 16.47 32 21.99 32C27.52 32 32 27.52 32 22C32 16.48 27.52 12 21.99 12ZM28.92 18H25.97C25.65 16.75 25.19 15.55 24.59 14.44C26.43 15.07 27.96 16.35 28.92 18ZM22 14.04C22.83 15.24 23.48 16.57 23.91 18H20.09C20.52 16.57 21.17 15.24 22 14.04ZM14.26 24C14.1 23.36 14 22.69 14 22C14 21.31 14.1 20.64 14.26 20H17.64C17.56 20.66 17.5 21.32 17.5 22C17.5 22.68 17.56 23.34 17.64 24H14.26ZM15.08 26H18.03C18.35 27.25 18.81 28.45 19.41 29.56C17.57 28.93 16.04 27.66 15.08 26ZM18.03 18H15.08C16.04 16.34 17.57 15.07 19.41 14.44C18.81 15.55 18.35 16.75 18.03 18ZM22 29.96C21.17 28.76 20.52 27.43 20.09 26H23.91C23.48 27.43 22.83 28.76 22 29.96ZM24.34 24H19.66C19.57 23.34 19.5 22.68 19.5 22C19.5 21.32 19.57 20.65 19.66 20H24.34C24.43 20.65 24.5 21.32 24.5 22C24.5 22.68 24.43 23.34 24.34 24ZM24.59 29.56C25.19 28.45 25.65 27.25 25.97 26H28.92C27.96 27.65 26.43 28.93 24.59 29.56ZM26.36 24C26.44 23.34 26.5 22.68 26.5 22C26.5 21.32 26.44 20.66 26.36 20H29.74C29.9 20.64 30 21.31 30 22C30 22.69 29.9 23.36 29.74 24H26.36Z" fill="white"/>
</g>
<defs>
<clipPath id="clip0_2362_11964">
<rect width="24" height="24" fill="white" transform="translate(10 10)"/>
</clipPath>
</defs>
</svg>
