<svg width="36" height="36" viewBox="0 0 36 36" fill="none" xmlns="http://www.w3.org/2000/svg">
<path d="M8.81152 10.6169C8.81152 12.585 10.3555 14.1894 12.2887 14.2661V14.269H12.9541C14.9433 14.269 16.6552 15.6746 17.0422 17.6258H19.9275C20.3146 15.6746 22.0264 14.269 24.0156 14.269H24.7488C26.5092 14.269 27.9362 12.8301 27.9362 11.0551C27.9362 9.28019 26.5092 7.84131 24.7488 7.84131C24.511 7.84131 24.2794 7.86755 24.0565 7.91732C23.5577 5.53724 21.4625 3.75098 18.9534 3.75098C16.6562 3.75098 14.7059 5.24837 14.0101 7.32792C13.5335 7.09526 12.9987 6.96481 12.4336 6.96481C10.4332 6.96481 8.81152 8.5999 8.81152 10.6169Z" fill="url(#paint0_linear_779_19075)"/>
<path d="M13.9165 17.7177C14.0912 17.2985 14.5008 17.0254 14.955 17.0254H21.7924C22.2465 17.0254 22.6562 17.2985 22.8308 17.7177L27.8043 29.654C28.3189 30.8891 27.4115 32.2502 26.0736 32.2502H10.6738C9.33586 32.2502 8.42846 30.8891 8.94305 29.6541L13.9165 17.7177Z" fill="#101213"/>
<path d="M14.0554 16.4992L13.0026 19.661L10.8457 23.3291C10.6708 23.6267 10.7746 24.0072 11.0777 24.179C11.3808 24.3508 11.7683 24.2489 11.9433 23.9513L13.2122 21.7934C13.4478 21.3928 13.9564 21.2565 14.3798 21.4482C14.7861 21.6322 15.0245 22.0779 14.9071 22.5082L13.8174 26.5013C13.6555 27.0943 14.0139 27.7038 14.6179 27.8626C15.2218 28.0215 15.8425 27.6696 16.0044 27.0767L17.0267 23.3304C17.1955 22.7119 17.7904 22.3178 18.4315 22.3178C19.4918 22.3178 20.5124 22.1505 21.4672 21.8413C22.4129 21.5351 23.5009 21.8073 24.0224 22.6535L24.8095 23.9309C24.9907 24.2249 25.3803 24.319 25.6798 24.1411C25.9792 23.9632 26.0751 23.5807 25.8939 23.2867L24.0965 20.3699L22.8132 16.5158C22.6616 16.0604 22.1332 15.8438 21.6967 16.058L20.877 16.4604C20.657 16.5685 20.3985 16.5709 20.1764 16.4671L19.5754 16.1861C18.8535 15.8486 18.0135 15.8565 17.2983 16.2076L16.7832 16.4604C16.5632 16.5685 16.3047 16.5709 16.0826 16.4671L15.1581 16.0348C14.7231 15.8314 14.2051 16.0496 14.0554 16.4992Z" fill="url(#paint1_linear_779_19075)"/>
<defs>
<linearGradient id="paint0_linear_779_19075" x1="18.3594" y1="3.75098" x2="18.3739" y2="14.8133" gradientUnits="userSpaceOnUse">
<stop stop-color="#8F959C"/>
<stop offset="1" stop-color="#BFC5CB"/>
</linearGradient>
<linearGradient id="paint1_linear_779_19075" x1="18.3731" y1="14.5879" x2="18.3731" y2="24.5477" gradientUnits="userSpaceOnUse">
<stop stop-color="#FCFF4F"/>
<stop offset="1" stop-color="#FF5353"/>
</linearGradient>
</defs>
</svg>
