<svg width="36" height="36" viewBox="0 0 36 36" fill="none" xmlns="http://www.w3.org/2000/svg">
<path d="M18.7989 31.5013C21.0177 29.8535 19.1848 28.8841 18.4131 28.6903L22.0788 25.3945C24.0081 28.4964 21.9823 31.5013 18.7989 31.5013Z" fill="url(#paint0_linear_779_19020)"/>
<ellipse cx="4.12071" cy="3.28582" rx="4.12071" ry="3.28582" transform="matrix(0.566552 -0.824026 0.821454 0.570275 14.0342 26.3633)" fill="url(#paint1_linear_779_19020)"/>
<ellipse cx="6.66238" cy="3.3895" rx="6.66238" ry="3.3895" transform="matrix(0.89708 -0.441868 0.438435 0.898763 10.1768 21.3945)" fill="url(#paint2_linear_779_19020)"/>
<ellipse cx="9.93888" cy="4.94215" rx="9.93888" ry="4.94215" transform="matrix(0.968859 -0.247614 0.245374 0.969429 5.79785 14.0498)" fill="url(#paint3_linear_779_19020)"/>
<ellipse cx="13.0248" cy="6.97814" rx="13.0248" ry="6.97814" transform="matrix(0.984067 0.177798 -0.176139 0.984365 7.36621 2.25098)" fill="url(#paint4_linear_779_19020)"/>
<ellipse cx="9.41248" cy="3.6614" rx="9.41248" ry="3.6614" transform="matrix(0.973807 0.227376 -0.225298 0.97429 11.7666 3.29395)" fill="url(#paint5_linear_779_19020)"/>
<path d="M5.47707 17.0576C4.31949 19.2225 3.83718 24.4245 15.3166 22.6797C9.14278 24.5215 -0.117899 25.2969 5.47707 17.0576Z" fill="#8F959C"/>
<path d="M23.8141 22.4863C25.7434 25.1035 25.2804 26.7708 21.8848 28.3993C24.2964 27.8823 29.1197 26.4606 23.8141 22.4863Z" fill="#8F959C"/>
<defs>
<linearGradient id="paint0_linear_779_19020" x1="20.6223" y1="25.3945" x2="20.6223" y2="31.5013" gradientUnits="userSpaceOnUse">
<stop stop-color="#E1E5E9"/>
<stop offset="1" stop-color="#8F959C"/>
</linearGradient>
<linearGradient id="paint1_linear_779_19020" x1="4.12071" y1="0" x2="3.86493" y2="6.95475" gradientUnits="userSpaceOnUse">
<stop stop-color="#E1E5E9"/>
<stop offset="1" stop-color="#8F959C"/>
</linearGradient>
<linearGradient id="paint2_linear_779_19020" x1="6.66238" y1="0" x2="6.49391" y2="7.17994" gradientUnits="userSpaceOnUse">
<stop stop-color="#E1E5E9"/>
<stop offset="1" stop-color="#8F959C"/>
</linearGradient>
<linearGradient id="paint3_linear_779_19020" x1="9.93888" y1="0" x2="9.69878" y2="10.4692" gradientUnits="userSpaceOnUse">
<stop stop-color="#E1E5E9"/>
<stop offset="1" stop-color="#8F959C"/>
</linearGradient>
<linearGradient id="paint4_linear_779_19020" x1="13.0248" y1="0" x2="12.6596" y2="14.7808" gradientUnits="userSpaceOnUse">
<stop stop-color="#E1E5E9"/>
<stop offset="1" stop-color="#8F959C"/>
</linearGradient>
<linearGradient id="paint5_linear_779_19020" x1="9.41248" y1="4.83394e-08" x2="8.78142" y2="11.1167" gradientUnits="userSpaceOnUse">
<stop stop-color="#5D6369"/>
<stop offset="1" stop-color="#8F959C" stop-opacity="0"/>
</linearGradient>
</defs>
</svg>
