<svg width="36" height="36" viewBox="0 0 36 36" fill="none" xmlns="http://www.w3.org/2000/svg">
<path fill-rule="evenodd" clip-rule="evenodd" d="M8.99142 16.0679L9.01372 16.0678H15.0884V16.0658C15.1185 16.065 15.1486 16.0638 15.1787 16.0624V16.0678H21.0591C21.0689 16.0679 21.0787 16.0679 21.0886 16.0679C21.0984 16.0679 21.1082 16.0679 21.118 16.0678H21.2763V16.0621C22.8205 15.9652 24.043 14.6821 24.043 13.1135C24.043 11.4818 22.7202 10.1591 21.0886 10.1591C20.5211 10.1591 19.9911 10.3191 19.541 10.5964C19.1566 8.41069 17.2486 6.75 14.9527 6.75C12.9602 6.75 11.2599 8.00082 10.594 9.76008C10.1178 9.50087 9.5718 9.35359 8.99142 9.35359C7.13733 9.35359 5.63429 10.8566 5.63429 12.7107C5.63429 14.5648 7.13733 16.0679 8.99142 16.0679Z" fill="url(#paint0_linear_779_19167)"/>
<path fill-rule="evenodd" clip-rule="evenodd" d="M21.3906 22.2691C21.4145 22.2691 21.4384 22.269 21.4622 22.2687H22.4658H28.2287C28.245 22.2689 28.2613 22.269 28.2777 22.269C30.4198 22.269 32.1564 20.5325 32.1564 18.3903C32.1564 16.2482 30.4198 14.5117 28.2777 14.5117C27.6072 14.5117 26.9765 14.6818 26.4263 14.9812C25.657 12.9489 23.6925 11.5039 21.3906 11.5039C18.5768 11.5039 16.2673 13.663 16.0284 16.4149C15.9255 16.404 15.8211 16.3984 15.7153 16.3984C14.0943 16.3984 12.7803 17.7124 12.7803 19.3334C12.7803 20.855 13.9382 22.1061 15.4209 22.2538V22.2687H21.2331H21.3191C21.3429 22.269 21.3668 22.2691 21.3906 22.2691Z" fill="url(#paint1_linear_779_19167)"/>
<path fill-rule="evenodd" clip-rule="evenodd" d="M13.7767 29.9176L13.8039 29.9175H15.0176H21.7212V29.917C24.1922 29.9168 26.1953 27.9137 26.1953 25.4426C26.1953 22.9715 24.192 20.9683 21.7209 20.9683C20.9476 20.9683 20.2201 21.1645 19.5855 21.5098C18.6978 19.1656 16.4319 17.499 13.7767 17.499C10.5305 17.499 7.8661 19.9901 7.59087 23.1649C7.47182 23.1523 7.35093 23.1458 7.22852 23.1458C5.35863 23.1458 3.84277 24.6616 3.84277 26.5315C3.84277 28.2874 5.17946 29.7312 6.8908 29.9006V29.9175H13.5944H13.7495L13.7767 29.9176Z" fill="url(#paint2_linear_779_19167)"/>
<defs>
<linearGradient id="paint0_linear_779_19167" x1="11.2964" y1="3.92757" x2="16.1813" y2="13.4805" gradientUnits="userSpaceOnUse">
<stop stop-color="#EEF7FE"/>
<stop offset="1" stop-color="#C4D0DC"/>
</linearGradient>
<linearGradient id="paint1_linear_779_19167" x1="20.2915" y1="12.0744" x2="21.8128" y2="19.3955" gradientUnits="userSpaceOnUse">
<stop stop-color="#EEF7FE"/>
<stop offset="1" stop-color="#C4D0DC"/>
</linearGradient>
<linearGradient id="paint2_linear_779_19167" x1="15.019" y1="17.499" x2="15.019" y2="29.9176" gradientUnits="userSpaceOnUse">
<stop stop-color="#EEF7FE"/>
<stop offset="1" stop-color="#C4D0DC"/>
</linearGradient>
</defs>
</svg>
