<svg width="36" height="36" viewBox="0 0 36 36" fill="none" xmlns="http://www.w3.org/2000/svg">
<path fill-rule="evenodd" clip-rule="evenodd" d="M20.0043 18.2332L20.0569 18.233H21.2259H27.8155L27.8293 18.233C30.2635 18.233 32.2368 16.2597 32.2368 13.8255C32.2368 11.3912 30.2635 9.4179 27.8293 9.4179C27.0678 9.4179 26.3514 9.611 25.7265 9.9509C24.852 7.64171 22.6199 6 20.0043 6C16.8065 6 14.1818 8.45405 13.9108 11.5816C13.7936 11.5692 13.6745 11.5628 13.554 11.5628C11.712 11.5628 10.2188 13.056 10.2188 14.898C10.2188 16.6274 11.535 18.0494 13.2204 18.2168V18.233H13.5128C13.5265 18.2331 13.5402 18.2332 13.554 18.2332C13.5677 18.2332 13.5814 18.2331 13.5951 18.233H19.8231H19.9518L20.0043 18.2332Z" fill="url(#paint0_linear_779_18978)"/>
<path fill-rule="evenodd" clip-rule="evenodd" d="M13.5483 18.2332L13.6007 18.233H14.7698H21.3598L21.3732 18.233C23.8074 18.233 25.7808 16.2597 25.7808 13.8255C25.7808 11.3912 23.8074 9.4179 21.3732 9.4179C20.6117 9.4179 19.8954 9.611 19.2704 9.9509C18.396 7.64171 16.1638 6 13.5483 6C10.3504 6 7.72574 8.45405 7.45475 11.5816C7.33752 11.5692 7.21847 11.5628 7.09792 11.5628C5.25593 11.5628 3.7627 13.056 3.7627 14.898C3.7627 16.6274 5.07895 18.0494 6.7643 18.2168V18.233H7.05683C7.07051 18.2331 7.0842 18.2332 7.09792 18.2332C7.11164 18.2332 7.12533 18.2331 7.13901 18.233H13.3678H13.4958L13.5483 18.2332Z" fill="url(#paint1_linear_779_18978)"/>
<path fill-rule="evenodd" clip-rule="evenodd" d="M13.2523 16.3027C12.472 15.5224 11.2564 15.473 10.5371 16.1923C9.81777 16.9117 9.86717 18.1273 10.6474 18.9075L12.3072 20.5673C11.6778 20.3981 11.0032 20.5415 10.5371 21.0076C9.81777 21.7269 9.86717 22.9425 10.6474 23.7228L14.9763 28.0517C15.7566 28.832 16.9722 28.8814 17.6915 28.1621C18.4109 27.4428 18.3614 26.2271 17.5812 25.4469L15.9214 23.7871C16.5508 23.9563 17.2254 23.813 17.6915 23.3468C18.4109 22.6275 18.3614 21.4119 17.5812 20.6316L13.2523 16.3027Z" fill="url(#paint2_linear_779_18978)"/>
<path fill-rule="evenodd" clip-rule="evenodd" d="M22.5558 20.9261C21.9863 20.3567 21.063 20.3567 20.4935 20.9261C19.924 21.4956 19.924 22.4189 20.4935 22.9884L21.7917 24.2866C21.3354 24.202 20.8465 24.3362 20.4935 24.6892C19.924 25.2587 19.924 26.182 20.4935 26.7515L23.6531 29.9111C24.2226 30.4805 25.1459 30.4805 25.7154 29.9111C26.2849 29.3416 26.2849 28.4182 25.7154 27.8488L24.4172 26.5506C24.8736 26.6352 25.3624 26.501 25.7154 26.148C26.2849 25.5785 26.2849 24.6552 25.7154 24.0857L22.5558 20.9261Z" fill="url(#paint3_linear_779_18978)"/>
<defs>
<linearGradient id="paint0_linear_779_18978" x1="32.8138" y1="12.0761" x2="25.0289" y2="13.5951" gradientUnits="userSpaceOnUse">
<stop stop-color="#BEC5CB"/>
<stop offset="1" stop-color="#8F959C"/>
</linearGradient>
<linearGradient id="paint1_linear_779_18978" x1="16.1995" y1="4.86073" x2="14.7753" y2="18.1522" gradientUnits="userSpaceOnUse">
<stop stop-color="#E1E5E9"/>
<stop offset="1" stop-color="#8F959C"/>
</linearGradient>
<linearGradient id="paint2_linear_779_18978" x1="14.1806" y1="16.667" x2="14.4213" y2="29.4794" gradientUnits="userSpaceOnUse">
<stop stop-color="#FAFF00"/>
<stop offset="1" stop-color="#FCA600"/>
</linearGradient>
<linearGradient id="paint3_linear_779_18978" x1="23.1045" y1="20.499" x2="23.8941" y2="29.908" gradientUnits="userSpaceOnUse">
<stop stop-color="#FAFF00"/>
<stop offset="1" stop-color="#FCA600"/>
</linearGradient>
</defs>
</svg>
