<svg width="36" height="36" viewBox="0 0 36 36" fill="none" xmlns="http://www.w3.org/2000/svg">
<path fill-rule="evenodd" clip-rule="evenodd" d="M6.37729 22.4919C6.81487 22.0543 7.52435 22.0543 7.96194 22.4919L12.1652 26.6951C12.6028 27.1327 12.6028 27.8422 12.1652 28.2798C11.7276 28.7174 11.0182 28.7174 10.5806 28.2798L6.37729 24.0765C5.9397 23.6389 5.9397 22.9294 6.37729 22.4919Z" fill="url(#paint0_linear_779_18849)"/>
<path fill-rule="evenodd" clip-rule="evenodd" d="M12.2601 22.4919C12.6977 22.0543 13.4072 22.0543 13.8447 22.4919L18.048 26.6951C18.4856 27.1327 18.4856 27.8422 18.048 28.2798C17.6104 28.7174 16.901 28.7174 16.4634 28.2798L12.2601 24.0765C11.8225 23.6389 11.8225 22.9294 12.2601 22.4919Z" fill="url(#paint1_linear_779_18849)"/>
<path fill-rule="evenodd" clip-rule="evenodd" d="M18.1449 22.4919C18.5825 22.0543 19.2919 22.0543 19.7295 22.4919L23.9328 26.6951C24.3704 27.1327 24.3704 27.8422 23.9328 28.2798C23.4952 28.7174 22.7857 28.7174 22.3481 28.2798L18.1449 24.0765C17.7073 23.6389 17.7073 22.9294 18.1449 22.4919Z" fill="url(#paint2_linear_779_18849)"/>
<path fill-rule="evenodd" clip-rule="evenodd" d="M24.0287 22.4919C24.4662 22.0543 25.1757 22.0543 25.6133 22.4919L29.8166 26.6951C30.2542 27.1327 30.2542 27.8422 29.8166 28.2798C29.379 28.7174 28.6695 28.7174 28.2319 28.2798L24.0287 24.0765C23.5911 23.6389 23.5911 22.9294 24.0287 22.4919Z" fill="url(#paint3_linear_779_18849)"/>
<path fill-rule="evenodd" clip-rule="evenodd" d="M19.9674 19.5318L20.0092 19.5317H21.1695H27.6645V19.5316H27.6648C30.0589 19.5316 31.9998 17.5908 31.9998 15.1966C31.9998 12.8025 30.0589 10.8616 27.6648 10.8616C26.9154 10.8616 26.2105 11.0517 25.5956 11.3864C24.7357 9.11495 22.5401 7.5 19.9674 7.5C16.8222 7.5 14.2407 9.91366 13.9742 12.9898C13.8591 12.9776 13.7423 12.9713 13.6241 12.9713C11.8124 12.9713 10.3438 14.4399 10.3438 16.2516C10.3438 17.9525 11.6382 19.351 13.2957 19.5157V19.5317H13.5828C13.5965 19.5319 13.6103 19.5319 13.6241 19.5319C13.6379 19.5319 13.6516 19.5319 13.6654 19.5317H19.7907H19.9256L19.9674 19.5318Z" fill="url(#paint4_linear_779_18849)"/>
<path fill-rule="evenodd" clip-rule="evenodd" d="M13.6178 19.5318L13.6596 19.5317H14.8198H21.3149V19.5316H21.3152C23.7093 19.5316 25.6502 17.5908 25.6502 15.1966C25.6502 12.8025 23.7093 10.8616 21.3152 10.8616C20.5658 10.8616 19.8609 11.0517 19.2459 11.3864C18.386 9.11495 16.1905 7.5 13.6178 7.5C10.4726 7.5 7.8911 9.91366 7.62457 12.9898C7.50954 12.9776 7.39273 12.9713 7.27447 12.9713C5.46279 12.9713 3.99414 14.4399 3.99414 16.2516C3.99414 17.9525 5.28859 19.351 6.94607 19.5157V19.5317H7.23317C7.24691 19.5319 7.26068 19.5319 7.27447 19.5319C7.28825 19.5319 7.30202 19.5319 7.31576 19.5317H13.4411H13.576L13.6178 19.5318Z" fill="url(#paint5_linear_779_18849)"/>
<defs>
<linearGradient id="paint0_linear_779_18849" x1="7.23564" y1="23.2182" x2="11.4389" y2="27.4214" gradientUnits="userSpaceOnUse">
<stop stop-color="#7DCAFF"/>
<stop offset="1" stop-color="#0198FF"/>
</linearGradient>
<linearGradient id="paint1_linear_779_18849" x1="13.1185" y1="23.2182" x2="17.3217" y2="27.4214" gradientUnits="userSpaceOnUse">
<stop stop-color="#7DCAFF"/>
<stop offset="1" stop-color="#0198FF"/>
</linearGradient>
<linearGradient id="paint2_linear_779_18849" x1="19.0032" y1="23.2182" x2="23.2065" y2="27.4214" gradientUnits="userSpaceOnUse">
<stop stop-color="#7DCAFF"/>
<stop offset="1" stop-color="#0198FF"/>
</linearGradient>
<linearGradient id="paint3_linear_779_18849" x1="24.887" y1="23.2182" x2="29.0903" y2="27.4214" gradientUnits="userSpaceOnUse">
<stop stop-color="#7DCAFF"/>
<stop offset="1" stop-color="#0198FF"/>
</linearGradient>
<linearGradient id="paint4_linear_779_18849" x1="32.5673" y1="13.4761" x2="24.9104" y2="14.9701" gradientUnits="userSpaceOnUse">
<stop stop-color="#BEC5CB"/>
<stop offset="1" stop-color="#8F959C"/>
</linearGradient>
<linearGradient id="paint5_linear_779_18849" x1="16.2264" y1="6.37947" x2="14.8257" y2="19.4523" gradientUnits="userSpaceOnUse">
<stop stop-color="#E1E5E9"/>
<stop offset="1" stop-color="#8F959C"/>
</linearGradient>
</defs>
</svg>
