<svg width="282" height="79" viewBox="0 0 282 79" fill="none" xmlns="http://www.w3.org/2000/svg">
<path d="M1 50.6052L8.54039 54.2459L20.1023 46.9644L24.1239 50.6052L36.1885 48.7848L51.2693 56.9765L68.8636 51.5154H82.4363L104.052 27.8505L114.106 24.6648L127.679 1L138.738 6.91621L148.289 5.55093L169.402 26.4852L178.953 20.569L195.039 36.0422L211.126 18.7486H215.65L224.196 11.4671L235.758 26.4852L241.79 23.2996L250.838 29.2158L262.903 17.3834L281 20.569" stroke="#0148FF" stroke-linecap="round" stroke-linejoin="round"/>
<path opacity="0.4" d="M7.59425 55L0 51.3077V79H282V20.8462L263.774 17.6154L251.623 29.6154L242.51 23.6154L236.434 26.8462L224.79 11.6154L216.183 19H211.627L195.425 36.5385L179.224 20.8462L169.605 26.8462L148.341 5.61538L138.722 7L127.583 1L113.914 25L103.788 28.2308L82.018 52.2308H68.3483L50.6284 57.7692L35.4399 49.4615L23.289 51.3077L19.2388 47.6154L7.59425 55Z" fill="url(#paint0_linear_779_22010)" fill-opacity="0.5"/>
<defs>
<linearGradient id="paint0_linear_779_22010" x1="141" y1="1" x2="141" y2="73.3614" gradientUnits="userSpaceOnUse">
<stop offset="0.0989583" stop-color="#467AFF" stop-opacity="0.4"/>
<stop offset="0.546875" stop-color="#0198FF" stop-opacity="0.3"/>
<stop offset="1" stop-color="#A3BCFF" stop-opacity="0"/>
</linearGradient>
</defs>
</svg>
