<svg width="20" height="20" viewBox="0 0 20 20" fill="none" xmlns="http://www.w3.org/2000/svg">
<path d="M4.454 8.4356L4.88852 7.8243L4.88851 7.82429L4.454 8.4356ZM10.2109 4.48448L10.9568 4.56244L10.9568 4.56241L10.2109 4.48448ZM15.4934 3.89835C15.8054 3.62594 15.8375 3.15216 15.5651 2.84012C15.2927 2.52808 14.8189 2.49595 14.5069 2.76836L15.4934 3.89835ZM12.5054 7.0989L12.892 6.45621L12.8919 6.45619L12.5054 7.0989ZM15.3529 7.0989L15.5007 6.36361L15.5007 6.36361L15.3529 7.0989ZM11.6012 10.7771L12.3484 10.7126L12.3484 10.7126L11.6012 10.7771ZM11.8606 17.5312C11.649 17.8873 11.7662 18.3475 12.1223 18.5591C12.4784 18.7706 12.9386 18.6535 13.1502 18.2974L11.8606 17.5312ZM2.2438 13.0319C1.86414 13.1975 1.69061 13.6396 1.85623 14.0192C2.02184 14.3989 2.46387 14.5724 2.84354 14.4068L2.2438 13.0319ZM3.40013 13.355L3.11919 12.6596L3.11915 12.6596L3.40013 13.355ZM6.96829 12.8971L7.27108 12.2109L7.27107 12.2109L6.96829 12.8971ZM8.24246 15.1755L8.78514 14.6578L8.78511 14.6578L8.24246 15.1755ZM8.50777 17.9345C8.31281 18.3 8.45102 18.7543 8.81648 18.9493C9.18194 19.1443 9.63626 19.006 9.83122 18.6406L8.50777 17.9345ZM10.0001 19.0834C15.0167 19.0834 19.0834 15.0166 19.0834 10H17.5834C17.5834 14.1882 14.1882 17.5834 10.0001 17.5834V19.0834ZM19.0834 10C19.0834 4.98343 15.0167 0.916687 10.0001 0.916687V2.41669C14.1882 2.41669 17.5834 5.81186 17.5834 10H19.0834ZM10.0001 0.916687C4.98349 0.916687 0.916748 4.98343 0.916748 10H2.41675C2.41675 5.81186 5.81192 2.41669 10.0001 2.41669V0.916687ZM0.916748 10C0.916748 15.0166 4.98349 19.0834 10.0001 19.0834V17.5834C5.81192 17.5834 2.41675 14.1882 2.41675 10H0.916748ZM1.98699 9.36171C3.21058 8.78394 3.77965 8.87644 4.01949 9.04691L4.88851 7.82429C3.92439 7.13901 2.63529 7.39677 1.34651 8.00533L1.98699 9.36171ZM4.01947 9.0469C4.08486 9.09338 4.19043 9.22552 4.36508 9.55073C4.50633 9.81374 4.70954 10.2399 4.93972 10.5742C5.17903 10.9218 5.54697 11.3288 6.12063 11.4742C6.70483 11.6222 7.30885 11.4522 7.91401 11.0838L7.13407 9.8025C6.71232 10.0592 6.53199 10.031 6.48911 10.0201C6.43568 10.0066 6.33379 9.95392 6.1752 9.72359C6.00747 9.47998 5.8847 9.20996 5.68657 8.84103C5.52184 8.53431 5.27464 8.09876 4.88852 7.8243L4.01947 9.0469ZM7.91401 11.0838C8.46567 10.748 8.95035 10.3119 9.00971 9.68294C9.06508 9.09629 8.70261 8.63443 8.5259 8.40743C8.03941 7.78246 7.83311 7.56424 7.98887 7.12126L6.57379 6.6237C6.09276 7.99176 7.03473 8.93377 7.34225 9.32882C7.56255 9.61183 7.50852 9.62493 7.51635 9.54201C7.52817 9.41676 7.60932 9.51321 7.13407 9.8025L7.91401 11.0838ZM7.98887 7.12126C8.08686 6.84258 8.21187 6.73987 8.33156 6.67602C8.49937 6.58651 8.6996 6.54807 9.05116 6.47929C9.34436 6.42192 9.81284 6.33312 10.2043 6.04054C10.6472 5.70941 10.8892 5.20962 10.9568 4.56244L9.46494 4.40652C9.42891 4.75121 9.33243 4.81948 9.30617 4.8391C9.22835 4.89727 9.09681 4.94192 8.76314 5.0072C8.48782 5.06107 8.03435 5.13449 7.62557 5.35255C7.16867 5.59628 6.7942 5.99686 6.57379 6.6237L7.98887 7.12126ZM10.9568 4.56241C11.0086 4.06707 10.8996 3.58495 10.5806 3.1809C10.276 2.79507 9.83624 2.55216 9.35652 2.39871C8.41416 2.09727 7.06612 2.06251 5.39471 2.21965L5.53512 3.71307C7.16587 3.55975 8.2599 3.62279 8.89952 3.82739C9.21079 3.92696 9.34704 4.03913 9.40334 4.11044C9.44526 4.16354 9.48227 4.24062 9.46493 4.40655L10.9568 4.56241ZM14.5069 2.76836C13.3086 3.81447 12.4402 4.70288 11.9655 5.41946C11.734 5.76884 11.5366 6.16366 11.5092 6.57023C11.4945 6.78805 11.5281 7.02185 11.6429 7.24352C11.758 7.46559 11.9303 7.62824 12.1188 7.7416L12.8919 6.45619C12.9009 6.46161 12.9422 6.4906 12.9747 6.55326C13.007 6.61552 13.0063 6.66419 13.0058 6.67114C13.0057 6.67233 13.0086 6.63744 13.0421 6.55817C13.075 6.48058 13.1299 6.37777 13.2159 6.24791C13.5728 5.7093 14.3107 4.93082 15.4934 3.89835L14.5069 2.76836ZM12.1188 7.74158C12.4816 7.95981 12.8319 8.06819 13.1858 8.08421C13.5246 8.09955 13.8188 8.02663 14.0397 7.96569C14.4876 7.84209 14.7533 7.74335 15.205 7.83418L15.5007 6.36361C14.6385 6.19027 14.0189 6.41537 13.6407 6.51973C13.4485 6.57276 13.3445 6.58986 13.2537 6.58575C13.1781 6.58233 13.0675 6.56181 12.892 6.45621L12.1188 7.74158ZM15.205 7.83418C15.3553 7.8644 15.4166 7.92376 15.449 7.9688C15.4905 8.02621 15.5224 8.11656 15.524 8.23111C15.5257 8.35047 15.4936 8.43929 15.4727 8.47394C15.4475 8.51563 15.5063 8.39406 15.6912 8.39406V9.89406C16.2217 9.89406 16.5752 9.54987 16.7567 9.24938C16.9424 8.94184 17.0289 8.56891 17.0238 8.21001C17.0187 7.84629 16.9186 7.44186 16.6654 7.09103C16.4033 6.72783 16.0074 6.46549 15.5007 6.36361L15.205 7.83418ZM15.6912 8.39406C15.4725 8.39406 14.2361 8.27777 13.2056 8.43595C12.6781 8.51693 12.0756 8.68193 11.605 9.0499C11.0858 9.45591 10.7869 10.0649 10.854 10.8416L12.3484 10.7126C12.3253 10.4449 12.4062 10.3275 12.529 10.2315C12.7004 10.0975 13.0021 9.98477 13.4332 9.91859C14.3201 9.78246 15.2188 9.89406 15.6912 9.89406V8.39406ZM10.854 10.8416C10.9701 12.1871 11.7439 12.9537 12.3451 13.4729C12.6708 13.7542 12.8758 13.9098 13.0395 14.0903C13.1796 14.2449 13.1843 14.3105 13.1843 14.3421H14.6843C14.6843 13.7903 14.4199 13.3796 14.1508 13.0828C13.9051 12.8118 13.5607 12.5407 13.3256 12.3377C12.8053 11.8883 12.4126 11.4559 12.3484 10.7126L10.854 10.8416ZM13.1843 14.3421C13.1843 14.5936 13.1035 14.9834 12.8807 15.5401C12.6619 16.0872 12.3251 16.7493 11.8606 17.5312L13.1502 18.2974C13.6383 17.4758 14.0159 16.7409 14.2734 16.0972C14.527 15.4633 14.6843 14.8687 14.6843 14.3421H13.1843ZM2.84354 14.4068C3.22189 14.2418 3.49975 14.1237 3.6811 14.0504L3.11915 12.6596C2.91814 12.7409 2.62502 12.8656 2.2438 13.0319L2.84354 14.4068ZM3.68106 14.0504C5.26455 13.4107 6.1929 13.3747 6.66551 13.5833L7.27107 12.2109C6.1921 11.7348 4.74161 12.0042 3.11919 12.6596L3.68106 14.0504ZM6.6655 13.5833C6.90123 13.6873 7.0151 13.7981 7.07888 13.8859C7.1463 13.9787 7.19139 14.0924 7.22519 14.2509C7.24244 14.3317 7.2554 14.4172 7.26904 14.5174C7.28143 14.6084 7.29673 14.7311 7.31598 14.8424C7.35182 15.0496 7.42709 15.4073 7.6998 15.6932L8.78511 14.6578C8.84297 14.7184 8.82303 14.7544 8.79403 14.5868C8.78086 14.5106 8.77134 14.4327 8.75534 14.3151C8.7406 14.2068 8.72161 14.0759 8.69218 13.9379C8.63264 13.6588 8.5255 13.3252 8.29254 13.0044C8.05594 12.6786 7.72129 12.4096 7.27108 12.2109L6.6655 13.5833ZM7.69977 15.6932C7.92077 15.9248 8.19091 16.0495 8.37983 16.1251C8.47846 16.1646 8.57862 16.1994 8.65875 16.2275C8.74492 16.2577 8.8119 16.2814 8.87291 16.3061C9.00292 16.3589 9.02758 16.387 9.02186 16.3809C8.99182 16.3486 8.99512 16.3149 8.99512 16.3517H10.4951C10.4951 15.96 10.3643 15.6214 10.1196 15.3587C9.89931 15.122 9.62887 14.9941 9.43692 14.9162C9.33695 14.8756 9.23624 14.8404 9.1547 14.8118C9.06713 14.7812 8.99958 14.7575 8.93719 14.7325C8.80408 14.6792 8.77897 14.6513 8.78514 14.6578L7.69977 15.6932ZM8.99512 16.3517C8.99512 16.7585 8.85678 17.2803 8.50777 17.9345L9.83122 18.6406C10.2497 17.8561 10.4951 17.0874 10.4951 16.3517H8.99512Z" fill="white"/>
</svg>
