<svg width="28" height="28" viewBox="0 0 28 28" fill="none" xmlns="http://www.w3.org/2000/svg">
<path d="M14 24.5C19.799 24.5 24.5 19.799 24.5 14C24.5 8.20101 19.799 3.5 14 3.5C8.20101 3.5 3.5 8.20101 3.5 14C3.5 19.799 8.20101 24.5 14 24.5Z" stroke="#4B5563" stroke-width="2" stroke-linecap="round" stroke-linejoin="round"/>
<path d="M5.42383 20.0585L6.70109 19.2875C6.82939 19.21 6.93565 19.1009 7.00968 18.9706C7.08371 18.8403 7.12303 18.6932 7.12387 18.5433L7.14606 14.5917C7.14698 14.4266 7.1946 14.2651 7.28341 14.126L9.45369 10.7246C9.51784 10.6241 9.60186 10.5378 9.70059 10.4709C9.79933 10.404 9.91069 10.358 10.0278 10.3357C10.145 10.3134 10.2655 10.3153 10.3819 10.3413C10.4983 10.3673 10.6081 10.4168 10.7047 10.4867L12.8545 12.0443C13.0366 12.1762 13.2625 12.233 13.4853 12.2028L16.9285 11.7365C17.1397 11.7079 17.3332 11.6032 17.4727 11.442L19.8961 8.64196C20.0432 8.47197 20.1193 8.25188 20.1085 8.02733L19.9807 5.36914" stroke="#4B5563" stroke-width="2" stroke-linecap="round" stroke-linejoin="round"/>
<path d="M20.4606 22.2782L19.2868 21.1021C19.177 20.9921 19.0399 20.9133 18.8896 20.8739L16.5425 20.258C16.3342 20.2033 16.1534 20.0737 16.0347 19.8941C15.9159 19.7144 15.8676 19.4972 15.899 19.2842L16.1598 17.5127C16.1818 17.3632 16.2422 17.2219 16.3351 17.1026C16.4279 16.9834 16.5501 16.8902 16.6897 16.8322L20.0202 15.4479C20.174 15.3839 20.3429 15.3652 20.507 15.394C20.6711 15.4227 20.8236 15.4977 20.9465 15.6102L23.6694 18.1004" stroke="#4B5563" stroke-width="2" stroke-linecap="round" stroke-linejoin="round"/>
</svg>
