<svg width="12" height="12" viewBox="0 0 12 12" fill="none" xmlns="http://www.w3.org/2000/svg">
<g clip-path="url(#clip0_918_3912)">
<path d="M6 4V8M4 6L6 8L8 6M6 1.5C7.19347 1.5 8.33807 1.97411 9.18198 2.81802C10.0259 3.66193 10.5 4.80653 10.5 6C10.5 7.19347 10.0259 8.33807 9.18198 9.18198C8.33807 10.0259 7.19347 10.5 6 10.5C4.80653 10.5 3.66193 10.0259 2.81802 9.18198C1.97411 8.33807 1.5 7.19347 1.5 6C1.5 4.80653 1.97411 3.66193 2.81802 2.81802C3.66193 1.97411 4.80653 1.5 6 1.5" stroke="#0198FF" stroke-linecap="round" stroke-linejoin="round"/>
</g>
<defs>
<clipPath id="clip0_918_3912">
<rect width="12" height="12" fill="white"/>
</clipPath>
</defs>
</svg>
